<svg id="visual" viewBox="0 0 960 540" width="960" height="540" xmlns="http://www.w3.org/2000/svg" xmlns:xlink="http://www.w3.org/1999/xlink" version="1.1"><rect x="0" y="0" width="960" height="540" fill="#200c3c"></rect><path d="M0 77L13.3 84.3C26.7 91.7 53.3 106.3 80 114.8C106.7 123.3 133.3 125.7 160 123C186.7 120.3 213.3 112.7 240 113C266.7 113.3 293.3 121.7 320 117.3C346.7 113 373.3 96 400 88.8C426.7 81.7 453.3 84.3 480 90.8C506.7 97.3 533.3 107.7 560 108C586.7 108.3 613.3 98.7 640 96.8C666.7 95 693.3 101 720 108C746.7 115 773.3 123 800 123C826.7 123 853.3 115 880 113.2C906.7 111.3 933.3 115.7 946.7 117.8L960 120L960 0L946.7 0C933.3 0 906.7 0 880 0C853.3 0 826.7 0 800 0C773.3 0 746.7 0 720 0C693.3 0 666.7 0 640 0C613.3 0 586.7 0 560 0C533.3 0 506.7 0 480 0C453.3 0 426.7 0 400 0C373.3 0 346.7 0 320 0C293.3 0 266.7 0 240 0C213.3 0 186.7 0 160 0C133.3 0 106.7 0 80 0C53.3 0 26.7 0 13.3 0L0 0Z" fill="#513088"></path><path d="M0 78L13.3 80.3C26.7 82.7 53.3 87.3 80 86.8C106.7 86.3 133.3 80.7 160 77.3C186.7 74 213.3 73 240 74.8C266.7 76.7 293.3 81.3 320 81C346.7 80.7 373.3 75.3 400 74.5C426.7 73.7 453.3 77.3 480 79C506.7 80.7 533.3 80.3 560 83.3C586.7 86.3 613.3 92.7 640 93.7C666.7 94.7 693.3 90.3 720 83.2C746.7 76 773.3 66 800 66.3C826.7 66.7 853.3 77.3 880 79.3C906.7 81.3 933.3 74.7 946.7 71.3L960 68L960 0L946.7 0C933.3 0 906.7 0 880 0C853.3 0 826.7 0 800 0C773.3 0 746.7 0 720 0C693.3 0 666.7 0 640 0C613.3 0 586.7 0 560 0C533.3 0 506.7 0 480 0C453.3 0 426.7 0 400 0C373.3 0 346.7 0 320 0C293.3 0 266.7 0 240 0C213.3 0 186.7 0 160 0C133.3 0 106.7 0 80 0C53.3 0 26.7 0 13.3 0L0 0Z" fill="#442979"></path><path d="M0 54L13.3 55.8C26.7 57.7 53.3 61.3 80 61.8C106.7 62.3 133.3 59.7 160 55.3C186.7 51 213.3 45 240 42.8C266.7 40.7 293.3 42.3 320 47.5C346.7 52.7 373.3 61.3 400 66.2C426.7 71 453.3 72 480 69C506.7 66 533.3 59 560 56.8C586.7 54.7 613.3 57.3 640 58.8C666.7 60.3 693.3 60.7 720 58.8C746.7 57 773.3 53 800 54.5C826.7 56 853.3 63 880 65.3C906.7 67.7 933.3 65.3 946.7 64.2L960 63L960 0L946.7 0C933.3 0 906.7 0 880 0C853.3 0 826.7 0 800 0C773.3 0 746.7 0 720 0C693.3 0 666.7 0 640 0C613.3 0 586.7 0 560 0C533.3 0 506.7 0 480 0C453.3 0 426.7 0 400 0C373.3 0 346.7 0 320 0C293.3 0 266.7 0 240 0C213.3 0 186.7 0 160 0C133.3 0 106.7 0 80 0C53.3 0 26.7 0 13.3 0L0 0Z" fill="#38236b"></path><path d="M0 35L13.3 36.3C26.7 37.7 53.3 40.3 80 41C106.7 41.7 133.3 40.3 160 39.3C186.7 38.3 213.3 37.7 240 35.5C266.7 33.3 293.3 29.7 320 31.2C346.7 32.7 373.3 39.3 400 40.7C426.7 42 453.3 38 480 37.7C506.7 37.3 533.3 40.7 560 41C586.7 41.3 613.3 38.7 640 37.3C666.7 36 693.3 36 720 37C746.7 38 773.3 40 800 37.5C826.7 35 853.3 28 880 23.8C906.7 19.7 933.3 18.3 946.7 17.7L960 17L960 0L946.7 0C933.3 0 906.7 0 880 0C853.3 0 826.7 0 800 0C773.3 0 746.7 0 720 0C693.3 0 666.7 0 640 0C613.3 0 586.7 0 560 0C533.3 0 506.7 0 480 0C453.3 0 426.7 0 400 0C373.3 0 346.7 0 320 0C293.3 0 266.7 0 240 0C213.3 0 186.7 0 160 0C133.3 0 106.7 0 80 0C53.3 0 26.7 0 13.3 0L0 0Z" fill="#2c1c5c"></path></svg>