<svg id="visual" viewBox="0 0 540 960" width="540" height="960" xmlns="http://www.w3.org/2000/svg" xmlns:xlink="http://www.w3.org/1999/xlink" version="1.1"><rect x="0" y="0" width="540" height="960" fill="#200c3c"></rect><path d="M0 109L12.8 113.5C25.7 118 51.3 127 77 129.5C102.7 132 128.3 128 154 124.2C179.7 120.3 205.3 116.7 231.2 117.8C257 119 283 125 308.8 127.8C334.7 130.7 360.3 130.3 386 124.5C411.7 118.7 437.3 107.3 463 106C488.7 104.7 514.3 113.3 527.2 117.7L540 122L540 0L527.2 0C514.3 0 488.7 0 463 0C437.3 0 411.7 0 386 0C360.3 0 334.7 0 308.8 0C283 0 257 0 231.2 0C205.3 0 179.7 0 154 0C128.3 0 102.7 0 77 0C51.3 0 25.7 0 12.8 0L0 0Z" fill="#513088"></path><path d="M0 102L12.8 96.2C25.7 90.3 51.3 78.7 77 78.3C102.7 78 128.3 89 154 97.3C179.7 105.7 205.3 111.3 231.2 109.2C257 107 283 97 308.8 95.2C334.7 93.3 360.3 99.7 386 101.8C411.7 104 437.3 102 463 104.8C488.7 107.7 514.3 115.3 527.2 119.2L540 123L540 0L527.2 0C514.3 0 488.7 0 463 0C437.3 0 411.7 0 386 0C360.3 0 334.7 0 308.8 0C283 0 257 0 231.2 0C205.3 0 179.7 0 154 0C128.3 0 102.7 0 77 0C51.3 0 25.7 0 12.8 0L0 0Z" fill="#442979"></path><path d="M0 71L12.8 72.5C25.7 74 51.3 77 77 72.7C102.7 68.3 128.3 56.7 154 54.2C179.7 51.7 205.3 58.3 231.2 65.7C257 73 283 81 308.8 84.2C334.7 87.3 360.3 85.7 386 79C411.7 72.3 437.3 60.7 463 55.8C488.7 51 514.3 53 527.2 54L540 55L540 0L527.2 0C514.3 0 488.7 0 463 0C437.3 0 411.7 0 386 0C360.3 0 334.7 0 308.8 0C283 0 257 0 231.2 0C205.3 0 179.7 0 154 0C128.3 0 102.7 0 77 0C51.3 0 25.7 0 12.8 0L0 0Z" fill="#38236b"></path><path d="M0 52L12.8 50.8C25.7 49.7 51.3 47.3 77 45.3C102.7 43.3 128.3 41.7 154 40.2C179.7 38.7 205.3 37.3 231.2 40C257 42.7 283 49.3 308.8 50.2C334.7 51 360.3 46 386 45.2C411.7 44.3 437.3 47.7 463 47.7C488.7 47.7 514.3 44.3 527.2 42.7L540 41L540 0L527.2 0C514.3 0 488.7 0 463 0C437.3 0 411.7 0 386 0C360.3 0 334.7 0 308.8 0C283 0 257 0 231.2 0C205.3 0 179.7 0 154 0C128.3 0 102.7 0 77 0C51.3 0 25.7 0 12.8 0L0 0Z" fill="#2c1c5c"></path></svg>